{"title":"Dr Strangelove(1964)MPEG-4[DaScubaDude]","uid":15184733,"size":951299785,"categoryP":"video","categoryS":"movies","magnet":"?xt=urn:btih:baf9db3e7f91da29b75c0f32a1f9b7384dc401cd&amp;dn=Dr+Strangelove%281964%29MPEG-4%5BDaScubaDude%5D&amp;tr=udp%3A%2F%2Ftracker.leechers-paradise.org%3A6969&amp;tr=udp%3A%2F%2Fzer0day.ch%3A1337&amp;tr=udp%3A%2F%2Fopen.demonii.com%3A1337&amp;tr=udp%3A%2F%2Ftracker.coppersurfer.tk%3A6969&amp;tr=udp%3A%2F%2Fexodus.desync.com%3A6969","seeders":0,"leechers":1,"uploader":"dascuba","files":1,"time":1467485528,"description":"Dr. Strangelove or: How I Learned to Stop Worrying and Love the Bomb (1964)\r\nPG | 1h 35min | Comedy | 29 January 1964 (USA)\r\nAn insane general triggers a path to nuclear holocaust that a war room full of politicians and generals frantically try to stop.\r\nDirector: Stanley Kubrick\r\nWriters: Stanley Kubrick (screenplay), Terry Southern (screenplay) | \r\nStars: Peter Sellers, George C. Scott, Sterling Hayden |\r\n\r\nGeneral\r\nComplete name                            : DrStrangeloveDR_STRANGELOVE_SE_Title1.mp4\r\nFormat                                   : MPEG-4\r\nFormat profile                           : Base Media\r\nCodec ID                                 : isom (isom/iso2/avc1/mp41)\r\nFile size                                : 907 MiB\r\nDuration                                 : 1h 34mn\r\nOverall bit rate                         : 1 340 Kbps\r\nMovie name                               : DR_STRANGELOVE_SE\r\nGenre                                    : Comedy\r\nWriting application                      : Lavf54.6.100\r\n\r\nVideo\r\nID                                       : 1\r\nFormat                                   : AVC\r\nFormat/Info                              : Advanced Video Codec\r\nFormat profile                           :   \r\nFormat settings, CABAC                   : No\r\nFormat settings, ReFrames                : 6 frames\r\nCodec ID                                 : avc1\r\nCodec ID/Info                            : Advanced Video Coding\r\nDuration                                 : 1h 34mn\r\nBit rate                                 : 1 203 Kbps\r\nWidth                                    : 720 pixels\r\nHeight                                   : 540 pixels\r\nDisplay aspect ratio                     : 4:3\r\nFrame rate mode                          : Constant\r\nFrame rate                               : 29.970 (30000/1001) fps\r\nColor space                              : YUV\r\nChroma subsampling                       : 4:2:0\r\nBit depth                                : 8 bits\r\nScan type                                : Progressive\r\nBits/(Pixel*Frame)                       : 0.103\r\nStream size                              : 815 MiB (90%)\r\n\r\nAudio\r\nID                                       : 2\r\nFormat                                   : AAC\r\nFormat/Info                              : Advanced Audio Codec\r\nFormat profile                           : LC\r\nCodec ID                                 : 40\r\nDuration                                 : 1h 34mn\r\nBit rate mode                            : Constant\r\nBit rate                                 : 132 Kbps\r\nChannel(s)                               : 2 channels\r\nChannel positions                        : Front: L R\r\nSampling rate                            : 44.1 KHz\r\nFrame rate                               : 43.066 fps (1024 spf)\r\nCompression mode                         : Lossy\r\nStream size                              : 87.9 MiB (10%)\r\nDefault                                  : Yes\r\nAlternate group                          : 1","torrent":{"xt":"urn:btih:baf9db3e7f91da29b75c0f32a1f9b7384dc401cd","amp;dn":"Dr+Strangelove%281964%29MPEG-4%5BDaScubaDude%5D","amp;tr":["udp%3A%2F%2Ftracker.leechers-paradise.org%3A6969","udp%3A%2F%2Fzer0day.ch%3A1337","udp%3A%2F%2Fopen.demonii.com%3A1337","udp%3A%2F%2Ftracker.coppersurfer.tk%3A6969","udp%3A%2F%2Fexodus.desync.com%3A6969"],"infoHash":"baf9db3e7f91da29b75c0f32a1f9b7384dc401cd","infoHashBuffer":{"type":"Buffer","data":[186,249,219,62,127,145,218,41,183,92,15,50,161,249,183,56,77,196,1,205]},"announce":[],"urlList":[]}}